<svg width="57" height="57" viewBox="0 0 57 57" fill="none" xmlns="http://www.w3.org/2000/svg">
<path d="M42.0904 12.9445L39.5913 40.9412L28.3575 44.0556L17.1547 40.9456L14.6582 12.9445H42.0904Z" fill="#264DE4"/>
<path d="M37.4519 39.1585L39.5876 15.234H28.3745V41.6751L37.4519 39.1585Z" fill="#2965F1"/>
<path d="M20.3813 25.6192L20.6891 29.0534H28.3743V25.6192H20.3813Z" fill="#EBEBEB"/>
<path d="M28.3741 18.6682H28.3622H19.7627L20.0749 22.1024H28.3741V18.6682Z" fill="#EBEBEB"/>
<path d="M28.3745 38.1112V34.5381L28.3594 34.5422L24.5347 33.5094L24.2902 30.7704H22.4317H20.8428L21.3239 36.1627L28.3587 38.1156L28.3745 38.1112Z" fill="#EBEBEB"/>
<path d="M32.5912 29.0533L32.1925 33.5073L28.3623 34.5411V38.1139L35.4027 36.1627L35.4543 35.5825L36.2613 26.5413L36.3451 25.6191L36.9651 18.6682H28.3623V22.1024H33.2015L32.889 25.6191H28.3623V29.0533H32.5912Z" fill="white"/>
</svg>
